<?xml version="1.0" encoding="iso-8859-1"?>
<!-- Uploaded to: SVG Repo, www.svgrepo.com, Generator: SVG Repo Mixer Tools -->
<svg height="800px" width="800px" version="1.1" id="Capa_1" xmlns="http://www.w3.org/2000/svg" xmlns:xlink="http://www.w3.org/1999/xlink" 
	 viewBox="0 0 60 60" xml:space="preserve">
<g>
	<path style="fill:#F0C419;" d="M7,29H1c-0.552,0-1,0.447-1,1s0.448,1,1,1h6c0.552,0,1-0.447,1-1S7.552,29,7,29z"/>
	<path style="fill:#F0C419;" d="M59,29h-6c-0.552,0-1,0.447-1,1s0.448,1,1,1h6c0.552,0,1-0.447,1-1S59.552,29,59,29z"/>
	<path style="fill:#F0C419;" d="M30,0c-0.552,0-1,0.447-1,1v6c0,0.553,0.448,1,1,1s1-0.447,1-1V1C31,0.447,30.552,0,30,0z"/>
	<path style="fill:#F0C419;" d="M52.707,7.293c-0.391-0.391-1.023-0.391-1.414,0l-5.736,5.736c-0.391,0.391-0.391,1.023,0,1.414
		c0.195,0.195,0.451,0.293,0.707,0.293s0.512-0.098,0.707-0.293l5.736-5.736C53.098,8.316,53.098,7.684,52.707,7.293z"/>
	<path style="fill:#F0C419;" d="M8.707,7.293c-0.391-0.391-1.023-0.391-1.414,0s-0.391,1.023,0,1.414l5.736,5.736
		c0.195,0.195,0.451,0.293,0.707,0.293s0.512-0.098,0.707-0.293c0.391-0.391,0.391-1.023,0-1.414L8.707,7.293z"/>
	<path style="fill:#F0C419;" d="M40.55,5.146c-0.508-0.214-1.095,0.022-1.311,0.53l-1.172,2.762
		c-0.216,0.508,0.021,1.096,0.53,1.312c0.127,0.054,0.26,0.079,0.39,0.079c0.389,0,0.759-0.229,0.921-0.609l1.172-2.762
		C41.295,5.949,41.058,5.361,40.55,5.146z"/>
	<path style="fill:#F0C419;" d="M21.187,5.519c-0.207-0.511-0.79-0.758-1.302-0.552c-0.512,0.207-0.76,0.789-0.553,1.302
		l1.124,2.781c0.157,0.389,0.532,0.625,0.928,0.625c0.125,0,0.251-0.023,0.374-0.073c0.512-0.207,0.76-0.789,0.553-1.302
		L21.187,5.519z"/>
	<path style="fill:#F0C419;" d="M9.22,20.093L6.458,18.92c-0.511-0.214-1.095,0.021-1.312,0.53
		c-0.216,0.508,0.021,1.095,0.529,1.312l2.762,1.173c0.128,0.054,0.26,0.079,0.391,0.079c0.389,0,0.759-0.229,0.921-0.609
		C9.965,20.896,9.728,20.31,9.22,20.093z"/>
	<path style="fill:#F0C419;" d="M55.034,19.885c-0.207-0.511-0.788-0.759-1.302-0.552l-2.782,1.124
		c-0.512,0.206-0.76,0.789-0.553,1.302c0.157,0.389,0.532,0.625,0.928,0.625c0.125,0,0.251-0.023,0.374-0.073l2.782-1.124
		C54.994,20.98,55.241,20.397,55.034,19.885z"/>
</g>
<g>
	<path style="fill:#F0C419;" d="M31,33c6.386,0,12.239,2.319,16.769,6.153C49.186,36.408,50,33.302,50,30c0-11.046-8.954-20-20-20
		s-20,8.954-20,20c0,3.794,1.076,7.328,2.91,10.35C17.594,35.806,23.974,33,31,33z"/>
</g>
<g>
	<path style="fill:#EDE21B;" d="M31,33c4.574,0,8.873,1.192,12.611,3.274C44.494,34.363,45,32.243,45,30c0-8.284-6.716-15-15-15
		s-15,6.716-15,15c0,2.613,0.671,5.068,1.845,7.208C20.922,34.551,25.782,33,31,33z"/>
</g>
<path style="fill:#E64C3C;" d="M9.025,60C9.01,59.668,9,59.335,9,59c0-12.131,9.869-22,22-22s22,9.869,22,22
	c0,0.335-0.01,0.668-0.025,1h4C56.987,59.668,57,59.335,57,59c0-14.359-11.641-26-26-26S5,44.641,5,59c0,0.335,0.013,0.668,0.025,1
	H9.025z"/>
<path style="fill:#F0C419;" d="M13.051,60C13.032,59.667,13,59.338,13,59c0-9.925,8.075-18,18-18s18,8.075,18,18
	c0,0.338-0.032,0.667-0.051,1h4.025C52.99,59.668,53,59.335,53,59c0-12.131-9.869-22-22-22S9,46.869,9,59
	c0,0.335,0.01,0.668,0.025,1H13.051z"/>
<path style="fill:#71C285;" d="M17.051,60C17.027,59.668,17,59.338,17,59c0-7.72,6.28-14,14-14s14,6.28,14,14
	c0,0.338-0.027,0.668-0.051,1h4C48.968,59.667,49,59.338,49,59c0-9.925-8.075-18-18-18s-18,8.075-18,18c0,0.338,0.032,0.667,0.051,1
	H17.051z"/>
<path style="fill:#0096E6;" d="M21.051,60C21.018,59.671,21,59.338,21,59c0-5.514,4.486-10,10-10s10,4.486,10,10
	c0,0.338-0.018,0.671-0.051,1h4C44.973,59.668,45,59.338,45,59c0-7.72-6.28-14-14-14s-14,6.28-14,14c0,0.338,0.027,0.668,0.051,1
	H21.051z"/>
<path style="fill:#546A79;" d="M25.09,60C25.035,59.674,25,59.341,25,59c0-3.309,2.691-6,6-6s6,2.691,6,6
	c0,0.341-0.035,0.674-0.09,1h4.04C40.982,59.671,41,59.338,41,59c0-5.514-4.486-10-10-10s-10,4.486-10,10
	c0,0.338,0.018,0.671,0.051,1H25.09z"/>
</svg>